<mxfile host="app.diagrams.net" modified="2023-10-13T09:00:19.231Z" agent="Mozilla/5.0 (X11; Linux x86_64) AppleWebKit/537.36 (KHTML, like Gecko) Chrome/118.0.0.0 Safari/537.36" version="22.0.4" etag="arz0xa7Q7PR7AV6Zgk-s" type="github">
  <diagram name="第 1 页" id="A0bnlgkThIRBoETc3U4p">
    <mxGraphModel>
      <root>
        <mxCell id="0" />
        <mxCell id="1" parent="0" />
      </root>
    </mxGraphModel>
  </diagram>
</mxfile>
